<?xml version="1.0" encoding="utf-8"?>
<!-- Generator: Adobe Illustrator 15.0.0, SVG Export Plug-In . SVG Version: 6.00 Build 0)  -->
<!DOCTYPE svg PUBLIC "-//W3C//DTD SVG 1.1//EN" "http://www.w3.org/Graphics/SVG/1.1/DTD/svg11.dtd">
<svg version="1.1" id="Calque_1" xmlns="http://www.w3.org/2000/svg" xmlns:xlink="http://www.w3.org/1999/xlink" x="0px" y="0px"
	 width="1700.79px" height="1133.86px" viewBox="0 0 1700.79 1133.86" enable-background="new 0 0 1700.79 1133.86"
	 xml:space="preserve">
<g>
	<path fill="none" stroke="#000000" stroke-width="2" stroke-miterlimit="10" d="M1085.407,529.774
		c0,105.234-90.759,190.545-202.716,190.545c-111.958,0-202.717-85.311-202.717-190.545"/>
	<path fill="none" stroke="#000000" stroke-width="2" stroke-miterlimit="10" d="M1087.088,495.329
		c0-105.235-90.758-190.544-202.717-190.544c-111.956,0-202.716,85.309-202.716,190.544"/>
	<g>
		<polygon points="792.933,503.394 758.826,392.767 840.178,453.961 884.626,379.489 930.228,454.375 1009.48,391.446 
			978.388,502.441 		"/>
		<polygon stroke="#FFFFFF" stroke-miterlimit="10" points="792.404,507.744 797.826,536.219 971.745,537.555 978.341,508.833 		"/>
		<circle stroke="#000000" stroke-miterlimit="10" cx="757.024" cy="382.476" r="11.577"/>
		<circle stroke="#000000" stroke-miterlimit="10" cx="885.19" cy="370.079" r="11.577"/>
		<path stroke="#000000" stroke-miterlimit="10" d="M1022.611,386.382c-2.562,5.858-9.387,8.532-15.247,5.972
			c-5.859-2.56-8.53-9.383-5.972-15.241c2.562-5.86,9.383-8.536,15.242-5.974C1022.494,373.697,1025.17,380.523,1022.611,386.382z"
			/>
	</g>
	<g>
		<polygon points="668.695,519.562 664.494,505.936 674.514,513.474 679.988,504.301 685.605,513.524 695.367,505.774 
			691.537,519.444 		"/>
		<polygon stroke="#FFFFFF" stroke-width="0.25" stroke-miterlimit="10" points="668.63,520.098 669.297,523.604 690.719,523.77 
			691.531,520.231 		"/>
		<circle stroke="#FFFFFF" stroke-width="0.25" stroke-miterlimit="10" cx="664.272" cy="504.669" r="1.426"/>
		<circle stroke="#FFFFFF" stroke-width="0.25" stroke-miterlimit="10" cx="680.058" cy="503.142" r="1.426"/>
		<circle stroke="#FFFFFF" stroke-width="0.25" stroke-miterlimit="10" cx="695.676" cy="504.579" r="1.426"/>
	</g>
	<g>
		<polygon points="1074.128,518.75 1069.926,505.125 1079.946,512.662 1085.422,503.489 1091.039,512.713 1100.8,504.962 
			1096.971,518.633 		"/>
		<polygon stroke="#FFFFFF" stroke-width="0.25" stroke-miterlimit="10" points="1074.063,519.286 1074.729,522.793 
			1096.15,522.958 1096.964,519.42 		"/>
		<circle stroke="#FFFFFF" stroke-width="0.25" stroke-miterlimit="10" cx="1069.704" cy="503.858" r="1.426"/>
		<circle stroke="#FFFFFF" stroke-width="0.25" stroke-miterlimit="10" cx="1085.491" cy="502.331" r="1.426"/>
		<circle stroke="#FFFFFF" stroke-width="0.25" stroke-miterlimit="10" cx="1101.11" cy="503.767" r="1.426"/>
	</g>
	<g>
		<circle stroke="#000000" stroke-miterlimit="10" cx="811.659" cy="674.846" r="5.06"/>
		<circle stroke="#000000" stroke-miterlimit="10" cx="828.273" cy="674.846" r="5.06"/>
		<circle stroke="#000000" stroke-miterlimit="10" cx="843.302" cy="674.846" r="5.061"/>
		<circle stroke="#000000" stroke-miterlimit="10" cx="858.972" cy="674.846" r="5.062"/>
		<circle stroke="#000000" stroke-miterlimit="10" cx="873.597" cy="674.846" r="5.061"/>
		<circle stroke="#000000" stroke-miterlimit="10" cx="888.147" cy="674.846" r="5.062"/>
		<circle stroke="#000000" stroke-miterlimit="10" cx="902.696" cy="674.846" r="5.061"/>
		<circle stroke="#000000" stroke-miterlimit="10" cx="917.449" cy="674.846" r="5.061"/>
		<circle stroke="#000000" stroke-miterlimit="10" cx="933.398" cy="674.846" r="5.061"/>
		<circle stroke="#000000" stroke-miterlimit="10" cx="949.066" cy="674.846" r="5.061"/>
	</g>
	<rect x="802.452" y="551.479" fill="none" width="243.427" height="92.333"/>
	<text transform="matrix(1 0 0 1 802.4517 612.562)" font-family="'Impact'" font-size="77.2251">BBOY</text>
	<rect x="804.97" y="623.62" fill="none" width="243.428" height="92.334"/>
	<text transform="matrix(1 0 0 1 804.9697 654.1606)" font-family="'Impact'" font-size="38.6126">RANKINGZ</text>
</g>
</svg>
